<svg xmlns="http://www.w3.org/2000/svg" height="800" width="1200" viewBox="-7.725465 -3.840975 66.95403 23.04585"><path d="M32.1483 10.902a.108.108 0 00-.124-.0665l-.0161.0046c-.1537.0328-.272.0236-.3552-.0318-.1178-.0783-.175-.2555-.175-.5413V7.6844c0-1.009-.6094-1.5205-1.8129-1.5205-1.0773 0-1.9214.5029-1.9214 1.145 0 .3304.204.569.5051.6049.1968.0236.3847-.0645.5208-.2064.2647-.2755.231-.6038-.0904-.9556.19-.1962.5265-.3119.9101-.3119.6251 0 .892.3657.892 1.223v.653c-.1464.0445-.2835.0865-.5348.1449-.5062.1172-1.2008.2734-1.7247.5587-.4324.234-.652.6033-.652 1.0975 0 .5382.3582 1.1666 1.3674 1.1666.5654 0 1.0716-.2643 1.5913-.8317.0452.5895.2715.8107.8208.8107.2643 0 .4756-.061.7269-.1808.068-.0328.1002-.1106.0721-.1797zm-1.667-.7891c-.1226.1685-.5234.6698-1.0228.6698-.6744 0-.8161-.467-.8161-.8588 0-.6443.5004-.9423 1.8389-1.2685zm12.9336 1.1927c-1.4298 0-2.5081-1.1051-2.5081-2.5709 0-1.435 1.125-2.6026 2.508-2.6026 1.4003 0 2.4978 1.1241 2.4978 2.5601 0 1.6143-1.2964 2.6134-2.4977 2.6134zm-.054-4.898c-.6178 0-1.3275.2622-1.3275 2.3056 0 1.559.4662 2.3164 1.425 2.3164.9175 0 1.327-.714 1.327-2.3164 0-1.5512-.4661-2.3056-1.4245-2.3056zM21.31 6.2243c0 1.1892-.297 1.8437-1.816 1.8437h-.8053V4.4759h.838c1.5715 0 1.7833.884 1.7833 1.7484zm-2.6213 4.0427V8.3983h.7294c1.0882 0 1.9158-.2269 2.4604-.675.5695-.4686.689-1.0622.689-1.4775 0-1.7085-1.6713-2.067-3.0736-2.067l.0057-.0004h-2.8435a.1165.1165 0 00-.1168.1152v.0077-.002c0 .0583.0358.1105.0919.1305.2534.0922.9413-.0369.9413.6909v5.1453c0 .3744-.1682.6386-.9371.7103-.0613.0057-.107.0548-.107.1142v.018c0 .0635.052.1147.1163.1147h3.0382a.1158.1158 0 00.1168-.1147v-.016c0-.0593-.0478-.1095-.109-.1146-.8354-.0661-1.003-.3211-1.003-.7119V8.402zm6.1781-4.1374c-1.3223 0-2.3985 1.181-2.3985 2.6328 0 1.4698 1.0087 2.5366 2.3985 2.5366 1.1677 0 1.7361-.6883 2.0617-1.2056a.1145.1145 0 00-.0317-.1541l-.0156-.0108a.1184.1184 0 00-.1594.023c-.4293.5311-.8052.8384-1.4542.8384-.8208 0-1.6977-.5577-1.6977-2.1238V8.655c-.0015-.0692 0-.164.0026-.2525h3.3585a.0171.0171 0 00.0172-.0164l.0021-.0266c.0478-.6417-.1365-1.219-.5186-1.624-.3733-.3964-.9143-.6058-1.5648-.6058zm-1.2756 1.943c.1106-1.0714.5343-1.6588 1.1998-1.6588.3328 0 .58.0911.7544.2786.2398.2566.3416.721.3016 1.3802zm15.1962.0573h-.001c-.9185-.2545-1.2762-.5116-1.2762-.9177 0-.4625.3723-.7984.8852-.7984.6033 0 .8618.2847 1.4988 1.3351l.0084.0138a.0247.0247 0 00.0088.0087h.0934a.1162.1162 0 00.1169-.1152V6.1465c0-.0093-.0078-.017-.0078-.017h-.1251a.1162.1162 0 00-.0899.042l-.2035.2438c-.2564-.1393-.6744-.2857-1.0939-.2857-1.055 0-1.7916.6427-1.7916 1.5635 0 .8644.581 1.1881 1.584 1.4554.9744.2633 1.3202.5373 1.3202 1.0458 0 .566-.5555.82-.95.82-.7342 0-1.0441-.269-1.7476-1.5155l-.0083-.0148a.029.029 0 00-.0088-.0092h-.0945a.1165.1165 0 00-.1169.1152v1.6916c0 .0097.0078.0174.0177.0174h.1194a.1184.1184 0 00.0826-.0338l.3213-.317c.3764.2304.9392.3508 1.3047.3508.5488 0 1-.1716 1.3047-.4958.272-.2893.4216-.699.4216-1.1538 0-.7876-.4263-1.1994-1.5726-1.5195zm-5.5577 2.4864c0 .2607-.067.3462-.488.3723a.116.116 0 00-.109.1147c0 .0635.0523.1148.1167.1148h2.0783a.1139.1139 0 00.1147-.1127.1148.1148 0 00-.1106-.1147c-.4807-.023-.6053-.0999-.6053-.3744V7.6101c.3421-.5613.5877-.8552 1.003-.9438a.8764.8764 0 00-.0332.2248c0 .3651.2585.6202.6287.6202.3634 0 .6178-.255.6178-.6202 0-.3452-.2186-.7487-.8353-.7487-.5052 0-.988.2857-1.4028.9694v-.7733a.1414.1414 0 00-.146-.1403l-1.3093.0348a.115.115 0 00-.1132.1147v.0164c0 .0569.0416.1055.0971.1132.4367.061.4969.2658.4964.4783zM47.604 6.1951a.1148.1148 0 01.0804.0328.1117.1117 0 01.0364.082l.0041.8572s.4268-1.0058 1.811-1.0058h.0124c.8628 0 1.3576.5429 1.3576 1.4893v2.961c0 .2608.0675.3463.488.3724a.1152.1152 0 01.109.1147.116.116 0 01-.1162.1147h-1.8675a.1162.1162 0 01-.1168-.1152.1172.1172 0 01.1064-.1168c.3396-.0286.3936-.1131.3936-.3697V7.9394c0-.8829-.2544-1.226-.907-1.226-.4413 0-.8022.3795-1.0275.698 0 0-.1152.1424-.2398.4107l.0135 2.789c0 .2567.053.3412.3826.3698a.1166.1166 0 01-.0104.2325h-1.856a.116.116 0 01-.1163-.1152.1163.1163 0 01.109-.1147c.4205-.0261.4875-.1111.4875-.3718V6.956c0-.213-.0602-.4189-.499-.4804a.1148.1148 0 01-.0975-.1136v-.017c0-.063.0498-.1131.1137-.1152z" fill="#3d3935"/><path d="M11.124.9893c3.291 1.8498 4.0573 5.997 1.7672 10.1934-2.0123 3.6884-6.4066 5.2637-9.681 3.3862-3.275-1.8785-3.914-7.118-2.5066-10.133C2.7471.0573 7.4876-1.055 11.124.9893" fill="#007fa3"/><path d="M11.0476 4.1712c.6443.6785.8447 1.708.733 2.5524-.1282.9628-.72 1.854-1.7038 2.4444-.7804.4691-1.8057.6555-2.8145.6647-.0083.1578-.04.7011-.056.7872-.0234.1265-.0686.1951-.1236.2658-.1085.1398-.2965.2294-.4834.2822-.148.041-.2948.0594-.3992.0594a.5762.5762 0 01-.0514-.0031c-.1095-.0123-.2316-.0635-.3068-.146-.0753-.0834-.1179-.188-.1277-.3067l-.0084-.1076c-.0212-.0922-.138-4.771-.1157-4.6875.0171-.5608.9345-.658 1.4324-.5592.4989.0988.3727.697.3592 1.4319 0 0-.0238.9664-.07 1.9876.6354-.0241 1.14-.2028 1.612-.4338.9537-.467 1.4583-1.1825 1.4583-2.236 0-1.0534-1.0394-2.2334-2.9577-2.2334s-2.7417.4774-3.6705 1.2353c-.2093.171-.3707.3431-.5228.4563-.1527.1132-.5582.1306-.6661-.1347-.1314-.3196.1131-.676.257-.8486.2258-.2709.7818-.8163 1.3986-1.1333.7066-.3636 1.5705-.7554 2.7734-.7856 1.0882-.0267 2.8067.0599 4.0444 1.439M6.887 11.9177c-.1002-.0768-.2124-.1296-.326-.1516a.6037.6037 0 00-.1174-.0118c-.214 0-.4242.1163-.5612.3114-.1143.1619-.1615.356-.1314.5434.0197.1203.065.2243.1324.3016.0753.087.1905.1542.3338.1946a.957.957 0 00.2518.0349h.0006c.1848 0 .351-.0553.4802-.1578.15-.1213.2315-.293.23-.485-.002-.2227-.1111-.4404-.2928-.5797" fill="#fff"/></svg>